0
SECTION
2
HEADER
9
$INSUNITS
70
4
9
$ACADVER
1
AC1014
9
$HANDSEED
5
FFFF
0
ENDSEC
0
SECTION
2
TABLES
0
TABLE
2
VPORT
5
8
100
AcDbSymbolTable
0
ENDTAB
0
TABLE
2
LTYPE
5
5
100
AcDbSymbolTable
0
LTYPE
5
14
100
AcDbSymbolTableRecord
100
AcDbLinetypeTableRecord
2
BYBLOCK
70
0
0
LTYPE
5
15
100
AcDbSymbolTableRecord
100
AcDbLinetypeTableRecord
2
BYLAYER
70
0
0
LTYPE
5
16
100
AcDbSymbolTableRecord
100
AcDbLinetypeTableRecord
2
DASHED
70
0
3
Dashed __ __ __ __ __ __ __ __ __ __ __ __ __ _
72
65
73
2
40
0.75
49
0.5
74
0
49
-0.25
74
0
0
ENDTAB
0
TABLE
2
LAYER
5
2
100
AcDbSymbolTable
70
2
0
LAYER
5
50
100
AcDbSymbolTableRecord
100
AcDbLayerTableRecord
2
0
70
0
62
7
6
CONTINUOUS
0
ENDTAB
0
TABLE
2
STYLE
5
3
100
AcDbSymbolTable
70
1
0
STYLE
5
11
100
AcDbSymbolTableRecord
100
AcDbTextStyleTableRecord
2
STANDARD
70
0
0
ENDTAB
0
TABLE
2
VIEW
5
6
100
AcDbSymbolTable
70
0
0
ENDTAB
0
TABLE
2
UCS
5
7
100
AcDbSymbolTable
70
0
0
ENDTAB
0
TABLE
2
APPID
5
9
100
AcDbSymbolTable
70
2
0
APPID
5
12
100
AcDbSymbolTableRecord
100
AcDbRegAppTableRecord
2
ACAD
70
0
0
ENDTAB
0
TABLE
2
DIMSTYLE
5
A
100
AcDbSymbolTable
70
1
0
ENDTAB
0
TABLE
2
BLOCK_RECORD
5
1
100
AcDbSymbolTable
70
1
0
BLOCK_RECORD
5
1F
100
AcDbSymbolTableRecord
100
AcDbBlockTableRecord
2
*MODEL_SPACE
0
BLOCK_RECORD
5
1B
100
AcDbSymbolTableRecord
100
AcDbBlockTableRecord
2
*PAPER_SPACE
0
ENDTAB
0
ENDSEC
0
SECTION
2
BLOCKS
0
BLOCK
5
20
100
AcDbEntity
100
AcDbBlockBegin
2
*MODEL_SPACE
0
ENDBLK
5
21
100
AcDbEntity
100
AcDbBlockEnd
0
BLOCK
5
1C
100
AcDbEntity
100
AcDbBlockBegin
2
*PAPER_SPACE
0
ENDBLK
5
1D
100
AcDbEntity
100
AcDbBlockEnd
0
ENDSEC
0
SECTION
2
ENTITIES
0
LWPOLYLINE
5
100
100
AcDbEntity
8
0
100
AcDbPolyline
90
4
70
1
43
0.0
10
263.9481555447955
20
1302.9871690593461
42
0.99999999999999989
10
257.94815554479584
20
1302.9871690593461
10
257.94815554479544
20
1296.9871690593448
42
0.99999999999999989
10
263.94815554479533
20
1296.9871690593459
0
LWPOLYLINE
5
101
100
AcDbEntity
8
0
100
AcDbPolyline
90
4
70
1
43
0.0
10
901.94815554479624
20
1296.987169059345
42
0.99999999999999989
10
907.94815554479612
20
1296.9871690593461
10
907.94815554479567
20
1302.9871690593463
42
0.99999999999999989
10
901.9481555447959
20
1302.9871690593463
0
LWPOLYLINE
5
102
100
AcDbEntity
8
0
100
AcDbPolyline
90
4
70
1
43
0.0
10
901.9481555447959
20
1396.9871690593457
42
0.99999999999999989
10
907.94815554479555
20
1396.9871690593457
10
907.94815554479601
20
1402.987169059347
42
0.99999999999999989
10
901.94815554479601
20
1402.9871690593459
0
LWPOLYLINE
5
103
100
AcDbEntity
8
0
100
AcDbPolyline
90
4
70
1
43
0.0
10
263.94815554479544
20
1402.9871690593468
42
0.99999999999999989
10
257.9481555447955
20
1402.9871690593454
10
257.94815554479584
20
1396.9871690593454
42
0.99999999999999989
10
263.94815554479555
20
1396.9871690593454
0
LWPOLYLINE
5
104
100
AcDbEntity
8
0
100
AcDbPolyline
90
20
70
1
43
0.0
10
682.94815554479567
20
1449.9871690593454
10
482.94815554479578
20
1449.9871690593454
10
482.94815554479607
20
1349.9871690593457
10
476.94815554479618
20
1349.9871690593457
10
476.94815554479584
20
1449.9871690593454
10
276.94815554479578
20
1449.9871690593454
10
276.94815554479612
20
1349.9871690593457
10
270.94815554479618
20
1349.9871690593457
10
270.94815554479572
20
1449.9871690593454
10
242.9481555447957
20
1449.9871690593454
10
242.94815554479581
20
1249.9871690593457
10
922.94815554479555
20
1249.9871690593457
10
922.94815554479567
20
1449.9871690593454
10
894.94815554479578
20
1449.9871690593454
10
894.9481555447959
20
1349.9871690593457
10
888.94815554479578
20
1349.9871690593457
10
888.94815554479578
20
1449.9871690593454
10
688.94815554479567
20
1449.9871690593454
10
688.9481555447959
20
1349.9871690593457
10
682.94815554479578
20
1349.9871690593457
0
ENDSEC
0
SECTION
2
OBJECTS
0
DICTIONARY
5
C
100
AcDbDictionary
3
ACAD_GROUP
350
D
3
ACAD_MLINESTYLE
350
17
0
DICTIONARY
5
D
100
AcDbDictionary
0
DICTIONARY
5
1A
330
C
100
AcDbDictionary
0
DICTIONARY
5
17
100
AcDbDictionary
0
ENDSEC
0
EOF
